<?xml version="1.0" encoding="utf-8"?>
<!-- Generator: Adobe Illustrator 27.5.0, SVG Export Plug-In . SVG Version: 6.00 Build 0)  -->
<svg version="1.1" id="Layer_2_00000085237649530125965540000005037833014677502902_"
	 xmlns="http://www.w3.org/2000/svg" xmlns:xlink="http://www.w3.org/1999/xlink" x="0px" y="0px" viewBox="0 0 1807.5 238.9"
	 style="enable-background:new 0 0 1807.5 238.9;" xml:space="preserve">
<path d="M405,141H227.1c-12,0-22.6-7.6-26.3-19l-11.5-34.3c-2.3-6.9-8.8-11.6-16.1-11.6H16.9C7.6,76.1,0,83.7,0,93v91.2h422v-26.3
	C422,148.6,414.4,141,405,141L405,141L405,141z"/>
<path d="M470.3,65.2h-178c-12,0-22.6-7.6-26.3-19l-11.5-34.3c-2.3-6.9-8.8-11.6-16.1-11.6H82.1c-9.3,0-16.9,7.6-16.9,16.9v91.2h422
	V82.2C487.2,72.8,479.6,65.2,470.3,65.2L470.3,65.2L470.3,65.2z"/>
<g>
	<path d="M584.4,184.2V0h33.4v156.2h81.1v28H584.4z"/>
	<path d="M787.5,186.9c-13.9,0-25.8-2.9-35.8-8.7c-10-5.8-17.8-14-23.2-24.6c-5.4-10.6-8.1-23.2-8.1-37.6c0-14.2,2.7-26.7,8.1-37.5
		c5.4-10.8,13-19.2,22.8-25.2c9.8-6,21.3-9,34.4-9c8.5,0,16.6,1.4,24.2,4.1c7.6,2.7,14.3,6.9,20.1,12.6c5.8,5.7,10.4,12.9,13.8,21.7
		c3.4,8.8,5,19.2,5,31.3v10H735.7v-21.9h82c-0.1-6.2-1.4-11.8-4-16.7c-2.6-4.9-6.3-8.7-11-11.6c-4.7-2.8-10.2-4.2-16.4-4.2
		c-6.7,0-12.5,1.6-17.5,4.8c-5,3.2-8.9,7.4-11.7,12.6c-2.8,5.2-4.2,10.9-4.3,17v19.2c0,8,1.5,14.9,4.4,20.6
		c2.9,5.7,7,10.1,12.3,13.1c5.3,3,11.5,4.5,18.5,4.5c4.7,0,9-0.7,12.9-2c3.8-1.3,7.2-3.3,10-6c2.8-2.6,4.9-5.9,6.4-9.8l30.4,3.4
		c-1.9,8-5.6,15-10.9,21c-5.4,6-12.2,10.6-20.6,13.9C807.8,185.3,798.3,186.9,787.5,186.9z"/>
	<path d="M936.6,238.9c-11.7,0-21.7-1.6-30.1-4.7c-8.4-3.1-15.1-7.4-20.2-12.6c-5.1-5.3-8.6-11.1-10.6-17.5l29.3-7.1
		c1.3,2.7,3.2,5.4,5.8,8.1c2.5,2.7,5.9,4.9,10.2,6.7c4.3,1.8,9.7,2.7,16.2,2.7c9.2,0,16.9-2.2,22.9-6.7c6.1-4.5,9.1-11.8,9.1-22
		v-26.2h-1.6c-1.7,3.4-4.1,6.8-7.3,10.3c-3.2,3.5-7.4,6.5-12.7,8.9c-5.2,2.4-11.8,3.6-19.7,3.6c-10.6,0-20.2-2.5-28.8-7.5
		c-8.6-5-15.4-12.5-20.5-22.5c-5.1-10-7.6-22.5-7.6-37.6c0-15.2,2.5-28,7.6-38.5c5.1-10.5,11.9-18.4,20.6-23.8
		c8.6-5.4,18.3-8.1,28.9-8.1c8.1,0,14.8,1.4,20,4.1c5.2,2.7,9.4,6,12.5,9.8c3.1,3.8,5.5,7.4,7.1,10.7h1.8V46.1h32.1v140.4
		c0,11.8-2.8,21.6-8.5,29.3c-5.6,7.7-13.3,13.5-23.1,17.4C960.1,237,949,238.9,936.6,238.9z M936.8,156.7c6.9,0,12.8-1.7,17.6-5
		c4.9-3.4,8.5-8.2,11.1-14.5c2.5-6.3,3.8-13.9,3.8-22.7c0-8.7-1.2-16.3-3.7-22.8c-2.5-6.5-6.1-11.6-11-15.2
		c-4.8-3.6-10.7-5.4-17.8-5.4c-7.3,0-13.3,1.9-18.2,5.7c-4.9,3.8-8.5,8.9-11,15.5c-2.5,6.6-3.7,14-3.7,22.4c0,8.5,1.2,15.8,3.7,22.2
		c2.5,6.3,6.2,11.2,11.1,14.8C923.7,154.9,929.7,156.7,936.8,156.7z"/>
	<path d="M1074.6,187c-8.8,0-16.6-1.6-23.6-4.7c-7-3.1-12.5-7.8-16.6-14c-4-6.2-6.1-13.8-6.1-22.8c0-7.8,1.4-14.2,4.3-19.3
		c2.9-5.1,6.8-9.2,11.8-12.2c5-3.1,10.6-5.4,16.9-7c6.3-1.6,12.8-2.7,19.5-3.5c8.1-0.8,14.7-1.6,19.7-2.3c5-0.7,8.7-1.8,11-3.2
		c2.3-1.5,3.5-3.8,3.5-6.9v-0.5c0-6.8-2-12-6-15.7c-4-3.7-9.8-5.6-17.4-5.6c-8,0-14.3,1.7-18.9,5.2c-4.6,3.5-7.8,7.6-9.4,12.3
		l-30.4-4.3c2.4-8.4,6.4-15.4,11.9-21.1c5.5-5.7,12.3-9.9,20.2-12.8c8-2.8,16.8-4.3,26.4-4.3c6.7,0,13.3,0.8,19.9,2.3
		c6.6,1.6,12.6,4.1,18.1,7.7c5.5,3.6,9.8,8.4,13.2,14.5c3.3,6.1,5,13.8,5,22.9v92.5h-31.3v-19h-1.1c-2,3.8-4.8,7.4-8.3,10.7
		c-3.6,3.3-8,6-13.4,8C1088.1,186,1081.8,187,1074.6,187z M1083.1,163.1c6.5,0,12.2-1.3,17-3.9c4.8-2.6,8.5-6.1,11.1-10.4
		c2.6-4.3,3.9-9,3.9-14.1v-16.3c-1,0.8-2.7,1.6-5.2,2.3c-2.4,0.7-5.1,1.3-8.1,1.9c-3,0.5-6,1-8.9,1.4c-2.9,0.4-5.5,0.8-7.6,1.1
		c-4.9,0.7-9.2,1.7-13,3.2c-3.8,1.5-6.9,3.6-9.1,6.3c-2.2,2.7-3.3,6.1-3.3,10.3c0,6,2.2,10.5,6.6,13.6S1076.3,163.1,1083.1,163.1z"
		/>
	<path d="M1213,0v184.2h-32.6V0H1213z"/>
	<path d="M1247.9,184.2V0h119.8v28h-86.4v50h80.2v28h-80.2v50.3h87.2v28H1247.9z"/>
	<path d="M1440.1,187c-8.8,0-16.6-1.6-23.6-4.7c-7-3.1-12.5-7.8-16.6-14c-4-6.2-6.1-13.8-6.1-22.8c0-7.8,1.4-14.2,4.3-19.3
		c2.9-5.1,6.8-9.2,11.8-12.2c5-3.1,10.6-5.4,16.9-7c6.3-1.6,12.8-2.7,19.5-3.5c8.1-0.8,14.7-1.6,19.7-2.3c5-0.7,8.7-1.8,11-3.2
		c2.3-1.5,3.5-3.8,3.5-6.9v-0.5c0-6.8-2-12-6-15.7c-4-3.7-9.8-5.6-17.4-5.6c-8,0-14.3,1.7-18.9,5.2c-4.6,3.5-7.8,7.6-9.4,12.3
		l-30.4-4.3c2.4-8.4,6.4-15.4,11.9-21.1c5.5-5.7,12.3-9.9,20.2-12.8c8-2.8,16.8-4.3,26.4-4.3c6.7,0,13.3,0.8,19.9,2.3
		c6.6,1.6,12.6,4.1,18.1,7.7c5.5,3.6,9.8,8.4,13.2,14.5c3.3,6.1,5,13.8,5,22.9v92.5h-31.3v-19h-1.1c-2,3.8-4.8,7.4-8.3,10.7
		c-3.6,3.3-8,6-13.4,8C1453.6,186,1447.3,187,1440.1,187z M1448.5,163.1c6.5,0,12.2-1.3,17-3.9c4.8-2.6,8.5-6.1,11.1-10.4
		c2.6-4.3,3.9-9,3.9-14.1v-16.3c-1,0.8-2.7,1.6-5.2,2.3c-2.4,0.7-5.1,1.3-8.1,1.9c-3,0.5-6,1-8.9,1.4c-2.9,0.4-5.5,0.8-7.6,1.1
		c-4.9,0.7-9.2,1.7-13,3.2c-3.8,1.5-6.9,3.6-9.1,6.3c-2.2,2.7-3.3,6.1-3.3,10.3c0,6,2.2,10.5,6.6,13.6S1441.8,163.1,1448.5,163.1z"
		/>
	<path d="M1655.1,82.6l-29.7,3.2c-0.8-3-2.3-5.8-4.4-8.5c-2.1-2.6-4.8-4.8-8.3-6.4c-3.5-1.6-7.7-2.4-12.8-2.4
		c-6.8,0-12.5,1.5-17,4.4c-4.6,2.9-6.9,6.7-6.8,11.4c-0.1,4,1.4,7.3,4.5,9.8c3,2.5,8,4.6,15.1,6.2l23.6,5
		c13.1,2.8,22.8,7.3,29.2,13.4c6.4,6.1,9.6,14.1,9.7,24c-0.1,8.7-2.6,16.4-7.6,23c-5,6.6-11.9,11.8-20.8,15.5
		c-8.9,3.7-19.1,5.6-30.6,5.6c-16.9,0-30.5-3.6-40.8-10.7c-10.3-7.1-16.5-17-18.4-29.7l31.8-3.1c1.4,6.2,4.5,10.9,9.2,14.1
		c4.7,3.2,10.8,4.8,18.3,4.8c7.7,0,14-1.6,18.7-4.8c4.7-3.2,7.1-7.1,7.1-11.8c0-4-1.5-7.2-4.5-9.8c-3-2.6-7.7-4.6-14.1-5.9
		l-23.6-4.9c-13.3-2.8-23.1-7.4-29.4-14c-6.4-6.6-9.5-14.9-9.4-25c-0.1-8.5,2.3-15.9,7-22.2c4.7-6.3,11.3-11.1,19.7-14.6
		c8.4-3.4,18.2-5.2,29.2-5.2c16.2,0,28.9,3.4,38.3,10.3C1647.1,61.5,1652.8,70.8,1655.1,82.6z"/>
	<path d="M1746.1,186.9c-13.9,0-25.8-2.9-35.8-8.7c-10-5.8-17.8-14-23.2-24.6c-5.4-10.6-8.1-23.2-8.1-37.6c0-14.2,2.7-26.7,8.1-37.5
		c5.4-10.8,13-19.2,22.8-25.2c9.8-6,21.3-9,34.4-9c8.5,0,16.6,1.4,24.2,4.1c7.6,2.7,14.3,6.9,20.1,12.6s10.4,12.9,13.8,21.7
		c3.4,8.8,5,19.2,5,31.3v10h-113.2v-21.9h82c-0.1-6.2-1.4-11.8-4-16.7c-2.6-4.9-6.3-8.7-11-11.6c-4.7-2.8-10.2-4.2-16.4-4.2
		c-6.7,0-12.5,1.6-17.5,4.8c-5,3.2-8.9,7.4-11.7,12.6c-2.8,5.2-4.2,10.9-4.3,17v19.2c0,8,1.5,14.9,4.4,20.6
		c2.9,5.7,7,10.1,12.3,13.1c5.3,3,11.5,4.5,18.5,4.5c4.7,0,9-0.7,12.9-2c3.8-1.3,7.2-3.3,10-6c2.8-2.6,4.9-5.9,6.4-9.8l30.4,3.4
		c-1.9,8-5.6,15-10.9,21c-5.4,6-12.2,10.6-20.6,13.9C1766.4,185.3,1756.8,186.9,1746.1,186.9z"/>
</g>
</svg>