<?xml version="1.0" encoding="utf-8"?>
<!-- Generator: Adobe Illustrator 27.5.0, SVG Export Plug-In . SVG Version: 6.00 Build 0)  -->
<svg version="1.1" id="Layer_2_00000085237649530125965540000005037833014677502902_"
	 xmlns="http://www.w3.org/2000/svg" xmlns:xlink="http://www.w3.org/1999/xlink" x="0px" y="0px" viewBox="0 0 2018 238.9"
	 style="enable-background:new 0 0 2018 238.9;" xml:space="preserve">
<path d="M409.4,142.5H229.6c-12.1,0-22.8-7.7-26.6-19.2l-11.6-34.7c-2.3-7-8.9-11.7-16.3-11.7h-158C7.7,76.9,0,84.6,0,94v92.2h426.6
	v-26.6C426.6,150.2,418.9,142.5,409.4,142.5L409.4,142.5L409.4,142.5z"/>
<path d="M475.4,65.9H295.5c-12.1,0-22.8-7.7-26.6-19.2L257.3,12C255,5,248.4,0.3,241,0.3H83c-9.4,0-17.1,7.7-17.1,17.1v92.2h426.6
	V83.1C492.5,73.6,484.8,65.9,475.4,65.9L475.4,65.9L475.4,65.9z"/>
<g>
	<path d="M593.4,0h35v152.4h84.4v33.4H593.4V0z"/>
	<path d="M784.3,130.9c0.2,3.9,1.1,7.5,2.8,10.7c1.7,3.3,4,6.1,6.9,8.5s6.3,4.2,10.1,5.6c3.8,1.3,7.8,2,12.1,2
		c8.3,0,14.7-1.5,19.1-4.4c4.4-2.9,7.6-6.4,9.6-10.5l28.7,15.9c-1.6,3.4-3.8,6.9-6.6,10.5c-2.8,3.6-6.5,6.9-11,10
		c-4.5,3-10,5.5-16.5,7.4c-6.5,1.9-14,2.9-22.7,2.9c-9.9,0-18.9-1.6-27.1-4.8c-8.1-3.2-15.2-7.8-21.1-13.8c-5.9-6-10.5-13.4-13.8-22
		c-3.3-8.7-4.9-18.5-4.9-29.5v-1.6c0-10.1,1.7-19.3,5.2-27.6c3.5-8.3,8.2-15.4,14.2-21.2c6-5.8,13-10.4,21.1-13.7
		c8-3.3,16.7-4.9,25.9-4.9c11.3,0,21.1,2,29.2,6c8.1,4,14.9,9,20.2,15.1c5.3,6.1,9.2,12.8,11.7,20.2c2.5,7.3,3.7,14.5,3.7,21.4v17.8
		H784.3z M815.9,80.7c-8.5,0-15.4,2.2-20.7,6.5c-5.3,4.3-8.8,9.3-10.4,15h62.1c-1.1-6.2-4.4-11.3-10-15.4
		C831.4,82.7,824.4,80.7,815.9,80.7z"/>
	<path d="M1011.2,166.7h-4.8c-1.4,3-3.1,5.9-5.2,8.6c-2,2.7-4.7,5.2-8,7.3c-3.3,2.1-7.2,3.8-11.7,5c-4.5,1.2-10,1.9-16.3,1.9
		c-8.1,0-15.7-1.5-22.7-4.4c-7-2.9-13.1-7.3-18.3-13c-5.2-5.7-9.3-12.8-12.2-21.1c-2.9-8.3-4.4-17.9-4.4-28.7v-4.8
		c0-10.6,1.5-20.1,4.6-28.4c3.1-8.3,7.3-15.3,12.7-21.1c5.4-5.7,11.7-10.1,18.8-13.1c7.2-3,14.7-4.5,22.7-4.5c10.6,0,19,2,25.2,6
		c6.2,4,11.1,9.6,14.6,16.9h4.8V54.1h33.4v164c0,6-1.9,11-5.7,14.9c-3.8,3.9-8.7,5.8-14.7,5.8h-88.6V207h68.5c4.8,0,7.2-2.7,7.2-8
		V166.7z M976.2,157.7c10.4,0,18.9-3.3,25.3-10c6.5-6.6,9.7-15.3,9.7-26.1v-3.2c0-10.8-3.2-19.5-9.7-26.1c-6.5-6.6-14.9-10-25.3-10
		c-10.4,0-18.9,3.2-25.3,9.7c-6.5,6.5-9.7,15.3-9.7,26.4v3.2c0,11.1,3.2,20,9.7,26.4C957.3,154.4,965.7,157.7,976.2,157.7z"/>
	<path d="M1164.9,166.7c-3.5,8.3-8.5,14.2-14.9,17.7s-13.8,5.2-22.3,5.2c-8,0-15.4-1.5-22.4-4.5c-7-3-13.1-7.4-18.4-13.3
		c-5.3-5.8-9.5-12.9-12.6-21.2c-3.1-8.3-4.6-17.8-4.6-28.4v-4.2c0-10.4,1.5-19.8,4.5-28.1c3-8.3,7.1-15.4,12.2-21.2
		c5.1-5.8,11.1-10.3,17.9-13.4c6.8-3.1,14.1-4.6,21.9-4.6c9.4,0,16.9,1.6,22.7,4.8c5.7,3.2,10.3,8.1,13.7,14.9h4.8V54.1h33.4V146
		c0,5.3,2.4,8,7.2,8h5v31.9h-22.8c-6,0-10.9-1.8-14.7-5.3c-3.8-3.5-5.7-8.1-5.7-13.8H1164.9z M1135.2,157.7c9.7,0,17.5-3.2,23.4-9.7
		c5.8-6.5,8.8-15.3,8.8-26.4v-3.2c0-11.1-2.9-19.9-8.8-26.4c-5.8-6.5-13.6-9.7-23.4-9.7c-9.7,0-17.5,3.2-23.4,9.7
		c-5.8,6.5-8.8,15.3-8.8,26.4v3.2c0,11.1,2.9,20,8.8,26.4C1117.7,154.4,1125.4,157.7,1135.2,157.7z"/>
	<path d="M1241.3,153.9h46.2V31.9h-44.6V0h78v153.9h43v31.9h-122.6V153.9z"/>
	<path d="M1405.6,0h117.3v33.4h-82.3v42.5h79.1v33.4h-79.1v43h85.5v33.4h-120.5V0z"/>
	<path d="M1652.2,166.7c-3.5,8.3-8.5,14.2-14.9,17.7s-13.8,5.2-22.3,5.2c-8,0-15.4-1.5-22.4-4.5c-7-3-13.1-7.4-18.4-13.3
		c-5.3-5.8-9.5-12.9-12.6-21.2c-3.1-8.3-4.6-17.8-4.6-28.4v-4.2c0-10.4,1.5-19.8,4.5-28.1c3-8.3,7.1-15.4,12.2-21.2
		c5.1-5.8,11.1-10.3,17.9-13.4c6.8-3.1,14.1-4.6,21.9-4.6c9.4,0,16.9,1.6,22.7,4.8c5.7,3.2,10.3,8.1,13.7,14.9h4.8V54.1h33.4V146
		c0,5.3,2.4,8,7.2,8h5v31.9h-22.8c-6,0-10.9-1.8-14.7-5.3c-3.8-3.5-5.7-8.1-5.7-13.8H1652.2z M1622.5,157.7c9.7,0,17.5-3.2,23.4-9.7
		c5.8-6.5,8.8-15.3,8.8-26.4v-3.2c0-11.1-2.9-19.9-8.8-26.4c-5.8-6.5-13.6-9.7-23.4-9.7c-9.7,0-17.5,3.2-23.4,9.7
		c-5.8,6.5-8.8,15.3-8.8,26.4v3.2c0,11.1,2.9,20,8.8,26.4C1605,154.4,1612.7,157.7,1622.5,157.7z"/>
	<path d="M1771.4,91.3c0,4.2,2.2,7.3,6.6,9.2c4.4,1.9,12.5,3.4,24.2,4.6c13.4,1.4,24.4,5.4,32.9,12.1c8.5,6.6,12.7,15.9,12.7,27.7
		v1.6c0,13.1-4.8,23.5-14.3,31.3c-9.6,7.8-23,11.7-40.3,11.7c-10.3,0-19-1.3-26.3-4c-7.3-2.7-13.3-6-18-10s-8.5-8.4-11-13.3
		c-2.6-4.9-4.3-9.6-5.2-14.2l30.8-10.1c1.4,5.7,4.4,10.6,8.9,14.9c4.5,4.2,11.5,6.4,20.8,6.4c8.3,0,14-1.3,17.1-3.8
		c3.1-2.6,4.6-5.3,4.6-8.4c0-1.8-0.4-3.4-1.2-4.9c-0.8-1.5-2.3-2.9-4.4-4.2s-5-2.4-8.6-3.3c-3.6-0.9-8.2-1.6-13.7-2.1
		c-14.9-1.2-26.7-5.1-35.4-11.5c-8.8-6.5-13.1-16-13.1-28.5v-1.6c0-6.5,1.4-12.3,4.2-17.3c2.8-5,6.5-9.2,11.1-12.6
		c4.6-3.5,9.9-6.1,15.9-7.8c6-1.8,12.2-2.7,18.6-2.7c8.3,0,15.5,1,21.6,3.1c6.1,2,11.3,4.7,15.5,8c4.2,3.3,7.7,6.9,10.4,10.9
		c2.7,4,4.7,7.8,6.1,11.5l-30.3,12.2c-1.6-4.8-4.3-8.5-8.2-11.3c-3.9-2.7-8.9-4.1-15.1-4.1c-5.7,0-9.9,1-12.7,3.1
		C1772.8,85.8,1771.4,88.3,1771.4,91.3z"/>
	<path d="M1921.3,130.9c0.2,3.9,1.1,7.5,2.8,10.7c1.7,3.3,4,6.1,6.9,8.5c2.9,2.4,6.3,4.2,10.1,5.6c3.8,1.3,7.8,2,12.1,2
		c8.3,0,14.7-1.5,19.1-4.4c4.4-2.9,7.6-6.4,9.6-10.5l28.7,15.9c-1.6,3.4-3.8,6.9-6.6,10.5c-2.8,3.6-6.5,6.9-11,10
		c-4.5,3-10,5.5-16.5,7.4c-6.5,1.9-14,2.9-22.7,2.9c-9.9,0-18.9-1.6-27.1-4.8c-8.1-3.2-15.2-7.8-21.1-13.8c-5.9-6-10.5-13.4-13.8-22
		c-3.3-8.7-4.9-18.5-4.9-29.5v-1.6c0-10.1,1.7-19.3,5.2-27.6c3.5-8.3,8.2-15.4,14.2-21.2c6-5.8,13-10.4,21.1-13.7
		c8-3.3,16.7-4.9,25.9-4.9c11.3,0,21.1,2,29.2,6c8.1,4,14.9,9,20.2,15.1c5.3,6.1,9.2,12.8,11.7,20.2c2.5,7.3,3.7,14.5,3.7,21.4v17.8
		H1921.3z M1952.9,80.7c-8.5,0-15.4,2.2-20.7,6.5c-5.3,4.3-8.8,9.3-10.4,15h62.1c-1.1-6.2-4.4-11.3-10-15.4
		C1968.5,82.7,1961.4,80.7,1952.9,80.7z"/>
</g>
</svg>
