<?xml version="1.0" encoding="utf-8"?>
<!-- Generator: Adobe Illustrator 27.5.0, SVG Export Plug-In . SVG Version: 6.00 Build 0)  -->
<svg version="1.1" id="Layer_1" xmlns="http://www.w3.org/2000/svg" xmlns:xlink="http://www.w3.org/1999/xlink" x="0px" y="0px"
	 viewBox="0 0 731.4 599.9" style="enable-background:new 0 0 731.4 599.9;" xml:space="preserve">
<style type="text/css">
	.st0{fill:#e5e1df;}
	.st1{fill:#1D38ED;}
	.st2{fill:#e5e1df;stroke:#000000;stroke-miterlimit:10;}
</style>
<path d="M388.9,140h-253c-12.7,0-23-10.3-23-23V23c0-12.7,10.3-23,23-23h253c12.7,0,23,10.3,23,23v94
	C411.9,129.7,401.6,140,388.9,140z"/>
<path class="st0" d="M135.9,2c-11.6,0-21,9.4-21,21v94c0,11.6,9.4,21,21,21h253c11.6,0,21-9.4,21-21V23c0-11.6-9.4-21-21-21H135.9z"
	/>
<path d="M484.6,152.8H350.1c-0.8,0-1.7-0.1-2.5-0.3c-5.1-1.2-8.6-5.8-8.6-11V95.8c0-6.2,5.1-11.3,11.3-11.3h134.4
	c1.8,0,3.6,0.4,5.2,1.3c0.6,0.3,1.2,0.7,1.8,1.2c2.7,2.1,4.3,5.4,4.3,8.8v45.7C495.9,147.7,490.9,152.8,484.6,152.8z"/>
<path class="st0" d="M350.2,86.5c-5.1,0-9.3,4.2-9.3,9.3v45.7c0,4.3,2.9,8,7.1,9c0.7,0.2,1.4,0.3,2.1,0.3h134.6
	c5.1,0,9.3-4.2,9.3-9.3V95.8c0-2.8-1.3-5.5-3.5-7.3c-0.5-0.4-1-0.7-1.5-1c-1.3-0.7-2.8-1.1-4.3-1H350.2z"/>
<path d="M475.6,151.8c6.1-14.8,12.5-29.6,19.3-44.1v24.7c-4.6,7-9.9,13.5-15.9,19.4H475.6z"/>
<path d="M491,87.7c-12.1,21.7-24.7,43.1-38,64.1h-2.3c13.4-21.4,26.3-43.1,38.6-65.1C489.9,86.9,490.5,87.3,491,87.7z"/>
<path d="M402.3,111.4c-7.9,14-16.6,27.5-26.1,40.4h-13.7c9-10.9,18-21.9,27-32.8c2.6-3.1,5.4-6.5,9.2-7.7L402.3,111.4z"/>
<path class="st1" d="M384.1,109.2c-1.4,1.5-2.8,3-4.1,4.6c-2.8,3.4-5.6,6.9-8.5,10.3c-1.8,2.1-3.5,4.3-5.2,6.4
	c-0.5-0.4-1.1-0.7-1.6-1.2c-5.8-5.1-6.5-13.9-1.4-19.7c4.9-5.7,13.4-6.4,19.3-1.8C383.1,108.2,383.6,108.7,384.1,109.2z"/>
<path d="M461.4,118.9l-26.3-9.6l-13-4.8c-4.2-1.6-8.5-3.3-12.9-4.4c-3.8-1.1-7.9-1-11.7,0.1c-3.4,1.3-6.5,3.2-9.1,5.6
	c-1.2,1.1-2.3,2.2-3.4,3.3c-1.4,1.5-2.8,3-4.1,4.6c-2.8,3.4-5.6,6.9-8.5,10.3c-1.8,2.1-3.5,4.3-5.2,6.4
	c-5.8,7.1-11.5,14.2-17.2,21.3c-0.8,0-1.5-0.1-2.3-0.3c6-7.4,11.9-14.8,18-22.1c0.7-0.9,1.4-1.7,2.1-2.6c2.9-3.6,5.9-7.2,8.8-10.8
	c2.3-2.8,4.5-5.6,7-8.2c0.2-0.2,0.4-0.5,0.7-0.7c5-5.2,11.2-9.7,18.7-9.8c4.4-0.1,8.6,1.3,12.7,2.8c4.4,1.6,8.8,3.2,13.2,4.8
	l26.5,9.7l6.6,2.4C463.1,117.4,462.6,119.3,461.4,118.9z"/>
<path d="M217,196.5H23c-12.7,0-23-10.3-23-23v-34c0-12.7,10.3-23,23-23h194c12.7,0,23,10.3,23,23v34
	C240,186.2,229.7,196.5,217,196.5z"/>
<path class="st0" d="M23,118.5c-11.6,0-21,9.4-21,21v34c0,11.6,9.4,21,21,21h194c11.6,0,21-9.4,21-21v-34c0-11.6-9.4-21-21-21H23z"
	/>
<path class="st1" d="M80,177.4H48.8c-3.5,0-6.3-2.8-6.3-6.3v-29.2c0-3.5,2.8-6.3,6.3-6.3H80c3.5,0,6.3,2.8,6.3,6.3v29.2
	C86.2,174.5,83.4,177.4,80,177.4z"/>
<path class="st2" d="M135.6,177.4h-31.2c-3.5,0-6.3-2.8-6.3-6.3v-29.2c0-3.5,2.8-6.3,6.3-6.3h31.2c3.5,0,6.3,2.8,6.3,6.3v29.2
	C141.9,174.5,139.1,177.4,135.6,177.4z"/>
<path class="st2" d="M191.2,177.4H160c-3.5,0-6.3-2.8-6.3-6.3v-29.2c0-3.5,2.8-6.3,6.3-6.3h31.2c3.5,0,6.3,2.8,6.3,6.3v29.2
	C197.5,174.5,194.7,177.4,191.2,177.4z"/>
<g>
	<path d="M273.7,48.5c1.7,0,3,1.3,3,3s-1.3,3-3,3h-40c-1.7,0-3-1.3-3-3s1.3-3,3-3H273.7 M273.7,47.5h-40c-2.2,0-4,1.8-4,4s1.8,4,4,4
		h40c2.2,0,4-1.8,4-4S275.9,47.5,273.7,47.5L273.7,47.5z"/>
</g>
<g>
	<path d="M360.7,70.5c1.7,0,3,1.3,3,3s-1.3,3-3,3h-127c-1.7,0-3-1.3-3-3s1.3-3,3-3H360.7 M360.7,69.5h-127c-2.2,0-4,1.8-4,4
		s1.8,4,4,4h127c2.2,0,4-1.8,4-4S362.9,69.5,360.7,69.5L360.7,69.5z"/>
</g>
<circle class="st1" cx="187.2" cy="62.5" r="26.8"/>
<path d="M479,313.5H226c-12.7,0-23-10.3-23-23v-94c0-12.7,10.3-23,23-23h253c12.7,0,23,10.3,23,23v94
	C502,303.2,491.7,313.5,479,313.5z"/>
<path class="st0" d="M226,175.5c-11.6,0-21,9.4-21,21v94c0,11.6,9.4,21,21,21h253c11.6,0,21-9.4,21-21v-94c0-11.6-9.4-21-21-21H226z
	"/>
<path class="st1" d="M324.5,210.7H282c-2.2,0-4.1-1.8-4.1-4.1c0-2.2,1.8-4.1,4.1-4.1l0,0h42.5c2.2,0,4.1,1.8,4.1,4.1
	S326.8,210.7,324.5,210.7z"/>
<g>
	<path d="M419.8,222.1L419.8,222.1c0.8,0,1.6,0.3,2.2,0.9c0.6,0.6,0.9,1.3,0.9,2.2c0,1.7-1.4,3-3.1,3.1H282c-1.7,0-3.1-1.4-3.1-3.1
		c0-0.8,0.3-1.6,0.9-2.2c0.6-0.6,1.3-0.9,2.2-0.9H419.8 M419.8,221.1H282l0,0c-2.2,0-4.1,1.8-4.1,4.1c0,2.2,1.8,4.1,4.1,4.1l0,0
		h137.8c2.2,0,4-1.8,4.1-4.1C423.9,222.9,422,221.1,419.8,221.1L419.8,221.1z"/>
</g>
<g>
	<path d="M419.8,240.5L419.8,240.5c0.8,0,1.6,0.3,2.2,0.9c0.6,0.6,0.9,1.3,0.9,2.2c0,1.7-1.4,3-3.1,3.1H282c-1.7,0-3.1-1.4-3.1-3.1
		c0-0.8,0.3-1.6,0.9-2.2c0.6-0.6,1.3-0.9,2.2-0.9H419.8 M419.8,239.5H282l0,0c-2.2,0-4.1,1.8-4.1,4.1c0,2.2,1.8,4.1,4.1,4.1l0,0
		h137.8c2.2,0,4-1.8,4.1-4.1C423.9,241.3,422,239.5,419.8,239.5L419.8,239.5z"/>
</g>
<g>
	<path d="M419.8,258.9L419.8,258.9c0.8,0,1.6,0.3,2.2,0.9s0.9,1.3,0.9,2.2c0,1.7-1.4,3.1-3.1,3.1H282c-1.7,0-3.1-1.4-3.1-3.1
		s1.4-3.1,3.1-3.1H419.8 M419.8,257.9H282l0,0c-2.2,0-4.1,1.8-4.1,4.1c0,2.2,1.8,4.1,4.1,4.1l0,0h137.8c2.2,0,4.1-1.8,4.1-4.1
		C423.9,259.8,422,257.9,419.8,257.9L419.8,257.9z"/>
</g>
<g>
	<path d="M419.8,277.4L419.8,277.4c0.8,0,1.6,0.3,2.2,0.9s0.9,1.3,0.9,2.2c0,1.7-1.4,3-3.1,3.1H282c-1.7,0-3.1-1.4-3.1-3.1
		s1.4-3.1,3.1-3.1H419.8 M419.8,276.4H282l0,0c-2.2,0-4.1,1.8-4.1,4.1c0,2.2,1.8,4.1,4.1,4.1l0,0h137.8c2.2,0,4-1.8,4.1-4.1
		C423.9,278.2,422,276.4,419.8,276.4L419.8,276.4z"/>
</g>
<g>
	<polygon class="st0" points="585.1,584.4 578.6,531.9 598,531.9 598,584.4 	"/>
	<path d="M579.1,532.4h18.4V584h-12L579.1,532.4 M578,531.4l6.6,53.6h13.9v-53.6H578L578,531.4z"/>
</g>
<path d="M599,599.4h-42.7v-0.5c0-9.2,7.4-16.6,16.6-16.6l0,0l7.8-5.9l14.6,5.9h3.7L599,599.4z"/>
<g>
	<polygon class="st0" points="649,527.4 664.9,516.3 695.1,559.3 684.6,566.7 	"/>
	<path d="M664.8,516.9l29.7,42.2l-9.8,6.9l-34.9-38.5L664.8,516.9 M665,515.6l-16.8,11.8l36.2,40l11.4-8L665,515.6L665,515.6z"/>
</g>
<path d="M704.6,570.9l-34.9,24.6l-0.3-0.4c-5.3-7.5-3.5-17.9,4-23.2l0,0l3-9.3l15.3-3.5l3-2.1L704.6,570.9z"/>
<path d="M653.8,318.4l1.2,2.5c7.6,16.2,9.5,34.3,6.6,52c-0.2,0.7-0.2,1.4,0.1,2.1c1.8,2.1-1,11.5-2.7,16.7l-1.5,9.2
	c0,0,2.5,8.5-1.3,7.9s1.8,8.5-1.7,10.8l-9.2,57.3l38.5,63.5L669.5,561l-57.1-73.5l-0.7-66.3l-8.6,53.5l-0.7,84.2l-26-2.8l-9.5-81.6
	l9.1-112.9l14.3-48.9L653.8,318.4z"/>
<g>
	<path class="st0" d="M498.7,310.8c-1.7,0-3.4-0.6-4.7-1.7c-2.9-2.5-3.2-6.8-0.7-9.7l0.1-0.1c1.4-1.5,3.3-2.4,5.4-2.4
		c1.7,0,3.4,0.6,4.7,1.7c0.3,0.2,0.6,0.5,0.8,0.8l0.2,0.3l25.4-9.1l8.4,10.4l-35.5,8.5l-0.1,0.1
		C501.6,310.3,500.2,310.8,498.7,310.8z"/>
	<path d="M529.8,291.1l7.7,9.5l-34.7,8.3h-0.2l-0.2,0.1c-1.1,0.8-2.5,1.2-3.8,1.2c-1.6,0-3.1-0.6-4.3-1.6c-1.3-1.1-2.1-2.7-2.2-4.4
		c-0.1-1.7,0.4-3.4,1.5-4.6l0.1-0.1c1.3-1.4,3.1-2.2,5-2.2c1.6,0,3.1,0.6,4.3,1.6c0.3,0.2,0.5,0.5,0.7,0.8l0.4,0.5l0.7-0.2
		L529.8,291.1 M530.1,289.9l-25.4,9.1c-0.3-0.3-0.5-0.6-0.9-0.9c-1.5-1.2-3.2-1.8-5-1.8c-2.1,0-4.2,0.9-5.8,2.6c0,0-0.1,0.1-0.1,0.2
		l0,0c-2.7,3.1-2.3,7.8,0.7,10.4c1.4,1.2,3.2,1.8,5,1.8c1.5,0,3.1-0.5,4.4-1.4l36.2-8.7L530.1,289.9L530.1,289.9z"/>
</g>
<path class="st1" d="M636,171.5l-21,1l-10,17.3l-14.3,4.3l-12.1,30l7.4,93.4c0,0,1.5,5.6-1.3,4.8c-2.7-0.8-1.6,6.3-1.6,6.3
	L573,367.5l92-8l-5.1-41.2c0,0,7.1,0.2,2.1-4.8s-7.4-3.4-2.6-9.3c4.8-5.9,5.5-10.2,5.5-10.2l2.1-29.3l3.5-41.2
	c1.1-13.3-4.5-26.2-14.9-34.5l0,0L636,171.5z"/>
<g>
	<path class="st0" d="M679.4,378.2c-1.4,0-2.8-0.4-3.9-1.2c-2.7-1.9-3.7-5.4-2.6-8.4v-0.1l-0.4-36.5l12.1,5.6l-2.6,26.9l0.3,0.2
		c0.3,0.2,0.7,0.4,1,0.6c3.2,2.3,4,6.7,1.8,9.9l-0.1,0.2C683.8,377.1,681.6,378.2,679.4,378.2L679.4,378.2z"/>
	<path d="M673,332.7l11.1,5.2l-2.5,26.2l-0.1,0.7l0.6,0.3c0.3,0.2,0.6,0.3,0.9,0.5c3,2.1,3.7,6.2,1.7,9.3l-0.1,0.1
		c-1.2,1.7-3.2,2.7-5.2,2.7c-1.3,0-2.6-0.4-3.6-1.1c-2.5-1.8-3.5-5-2.4-7.9l0.1-0.2v-0.2L673,332.7 M672,331.1l0.4,37.2
		c-1.2,3.3-0.1,7,2.7,9c1.3,0.9,2.8,1.3,4.2,1.3c2.3,0,4.6-1.1,6.1-3.2c0-0.1,0.1-0.1,0.1-0.2c2.3-3.5,1.5-8.2-1.9-10.6
		c-0.3-0.2-0.7-0.4-1.1-0.6l2.6-26.9L672,331.1L672,331.1z"/>
</g>
<path class="st1" d="M665.7,200.8c0,0,30.2,72,29.3,99.7l-10,51l-14-1l1-46c5.1-5.2-16.3-34.7-23.3-55.5L665.7,200.8z"/>
<path class="st1" d="M592.1,193.4c0,0-37.5,68.4-52.1,88.5l-11,8.6v14l25.7,0.6c0,0,38.2-31.7,36.7-47.4
	C590,241.9,592.1,193.4,592.1,193.4z"/>
<circle class="st2" cx="625.1" cy="140" r="26.6"/>
<path d="M635.4,164.5c-7.6-0.3-8.3-2.3-16-2.5c-2.4-0.1-5.3-0.4-6.5-2.5c-0.8-1.5-0.5-3.4,0.3-5c0.9-1.5,1.7-3,2.4-4.6
	c1.4-4.2-0.8-8.8-5.1-10.2c-0.9-0.3-1.9-0.5-2.9-0.4c-2.3,0.1-4.5,1.2-6.8,1.4c-3.2,0.3-10.2-10.2-8.7-13.1c1.4-2.8,4.3-4.8,4.7-7.9
	c0.3-2-0.5-4-0.6-6c-0.2-3,7.5,3.8,6.1,1.1c-3.4-6.6,28.9-14.7,34.2-6.5c2,3.1,5.5,2.9,8.7,4.7c2.1,1.2,7.3,5.4,8.5,8
	c1.1,2.6,1.6,5.5,1.5,8.4c0,13.3-2,25.6-12.7,33.4"/>
</svg>
